<?xml version="1.0" encoding="UTF-8"?><!DOCTYPE svg PUBLIC "-//W3C//DTD SVG 1.1//EN" "http://www.w3.org/Graphics/SVG/1.1/DTD/svg11.dtd"><svg xmlns="http://www.w3.org/2000/svg"><defs><style>.cls-1{fill:none;stroke:#fff;stroke-linecap:round;stroke-linejoin:round;stroke-width:.8px}.cls-2{fill:#fff}</style></defs><symbol id="facebook-logo" viewBox="0 0 408.788 408.788"><path d="M353.701 0H55.087C24.665 0 .002 24.662.002 55.085v298.616c0 30.423 24.662 55.085 55.085 55.085h147.275l.251-146.078h-37.951a8.954 8.954 0 0 1-8.954-8.92l-.182-47.087a8.955 8.955 0 0 1 8.955-8.989h37.882v-45.498c0-52.8 32.247-81.55 79.348-81.55h38.65a8.955 8.955 0 0 1 8.955 8.955v39.704a8.955 8.955 0 0 1-8.95 8.955l-23.719.011c-25.615 0-30.575 12.172-30.575 30.035v39.389h56.285c5.363 0 9.524 4.683 8.892 10.009l-5.581 47.087a8.955 8.955 0 0 1-8.892 7.901h-50.453l-.251 146.078h87.631c30.422 0 55.084-24.662 55.084-55.084V55.085C408.786 24.662 384.124 0 353.701 0z"/></symbol><symbol id="inst-logo" viewBox="0 0 169.063 169.063"><path d="M122.406 0H46.654C20.929 0 0 20.93 0 46.655v75.752c0 25.726 20.929 46.655 46.654 46.655h75.752c25.727 0 46.656-20.93 46.656-46.655V46.655C169.063 20.93 148.133 0 122.406 0zm31.657 122.407c0 17.455-14.201 31.655-31.656 31.655H46.654C29.2 154.063 15 139.862 15 122.407V46.655C15 29.201 29.2 15 46.654 15h75.752c17.455 0 31.656 14.201 31.656 31.655v75.752z"/><path d="M84.531 40.97c-24.021 0-43.563 19.542-43.563 43.563 0 24.02 19.542 43.561 43.563 43.561s43.563-19.541 43.563-43.561c0-24.021-19.542-43.563-43.563-43.563zm0 72.123c-15.749 0-28.563-12.812-28.563-28.561 0-15.75 12.813-28.563 28.563-28.563s28.563 12.813 28.563 28.563c0 15.749-12.814 28.561-28.563 28.561zM129.921 28.251c-2.89 0-5.729 1.17-7.77 3.22a11.053 11.053 0 0 0-3.23 7.78c0 2.891 1.18 5.73 3.23 7.78 2.04 2.04 4.88 3.22 7.77 3.22 2.9 0 5.73-1.18 7.78-3.22 2.05-2.05 3.22-4.89 3.22-7.78 0-2.9-1.17-5.74-3.22-7.78-2.04-2.05-4.88-3.22-7.78-3.22z"/></symbol><symbol id="location-icon" viewBox="0 0 9.32 12.19"><title>location</title><path class="cls-1" d="M191.2 430c0 2.35-4.11 7.13-4.11 7.13s-4.41-4.78-4.41-7.13a4.26 4.26 0 0 1 8.52 0z" transform="translate(-182.28 -425.3)"/><circle class="cls-2" cx="4.66" cy="4.45" r="1.3"/></symbol><symbol id="menu-icon" viewBox="0 0 24 24"><path d="M24 3c0-.6-.4-1-1-1H1c-.6 0-1 .4-1 1v2c0 .6.4 1 1 1h22c.6 0 1-.4 1-1V3zM24 11c0-.6-.4-1-1-1H1c-.6 0-1 .4-1 1v2c0 .6.4 1 1 1h22c.6 0 1-.4 1-1v-2zM24 19c0-.6-.4-1-1-1H1c-.6 0-1 .4-1 1v2c0 .6.4 1 1 1h22c.6 0 1-.4 1-1v-2z"/></symbol><symbol id="vk-logo" viewBox="0 0 94 94"><path d="M82 0H12C5.4 0 0 5.4 0 12v70c0 6.6 5.4 12 12 12h70c6.6 0 12-5.4 12-12V12c0-6.6-5.4-12-12-12zm-7.1 52.9c2.6 2.5 5.3 4.9 7.6 7.6 1 1.2 2 2.5 2.7 3.9 1 2 .1 4.2-1.7 4.4H72.2c-2.9.2-5.2-.9-7.2-2.9-1.6-1.6-3-3.3-4.5-4.9-.6-.7-1.3-1.3-2-1.8-1.3-.9-3-.5-3.7.9-.9 1.6-1.1 3.4-1.2 5.3-.1 2.7-.9 3.3-3.6 3.5-5.7.3-11.1-.6-16.1-3.5-4.5-2.6-7.9-6.1-10.9-10.2-5.8-7.9-10.3-16.5-14.3-25.4-.9-2-.2-3.1 2-3.1 3.7-.1 7.4-.1 11 0 1.6 0 2.6 1 3.1 2.5 1.6 4.5 3.8 8.8 6.7 12.7 1.1 1.4 2 3 3.5 4.1 1.1.7 2.4.3 2.9-.9.4-.9.6-1.9.6-2.9.3-3.4.3-6.8-.2-10.2-.3-1.9-1.7-3.4-3.6-3.8-1-.2-.9-.6-.4-1.2.9-1.1 1.8-1.7 3.5-1.7h12.7c2 .4 2.5 1.3 2.7 3.3v14.1c0 .8.4 3.1 1.8 3.6 1.1.4 1.9-.5 2.5-1.2 3.6-3.8 6-8.5 8.2-13.2.5-1 .8-2.1 1.2-3.1.5-1.4 1.4-2.1 2.9-2.1H82c.4 0 .7 0 1.1.1 2.1.4 2.6 1.2 2 3.3-1 3.2-3 5.8-4.9 8.4-2 2.8-4.2 5.6-6.3 8.4-1.5 2.5-1.3 3.8 1 6z"/></symbol></svg>