<svg id="Layer_1" data-name="Layer 1" xmlns="http://www.w3.org/2000/svg" viewBox="0 0 169.13 72.04">
    <defs>
        <style>
            .cls-1,.cls-2{fill:#fff}.cls-1{fill-rule:evenodd}
        </style>
    </defs>
    <title>
        logo
    </title>
    <path class="cls-1" d="M-298.22 164.16v35.2h-2.31v-22.75c0-2.68.07-5.15.22-7.53h-.15c-.75 1.94-1.72 4.47-2.76 6.86l-5.78 14.69h-2.31l-5.89-14.69c-1-2.39-2-4.92-2.76-6.86h-.07c.07 2.39.15 4.85.15 7.53v22.75h-2.31v-35.2h2.46l7.16 17.3c.75 1.86 1.72 4.62 2.31 6.34h.15c.6-1.72 1.57-4.47 2.39-6.34l7.16-17.3h2.39zM-276.29 190.41h-11.78l-2.31 9h-2.46l9.32-35.27h2.61l9.32 35.27h-2.46zm0 0zm-.6-2.16l-3.65-14.47c-.6-2.39-1.27-5.07-1.64-6.71h-.07c-.37 1.64-1 4.33-1.57 6.71l-3.73 14.47h10.66z" transform="translate(322.23 -127.39)"/>
    <path class="cls-1" d="M70.17 72.04l-7.38-16.11-7.38 16.11h-2.46l8.5-18.35-8.13-16.92h2.54l6.93 14.76 6.94-14.76h2.46l-8.06 16.92 8.58 18.35h-2.54zM118.35 69.88v2.16h-15.29V36.77h2.24v33.11h13.05z"/>
    <path class="cls-2" d="M123.34 36.77h2.31v35.27h-2.31z"/>
    <path class="cls-1" d="M134.61 38.85v14.69h12.38v2.17h-12.38v16.33h-2.24V36.77h15.51v2.08h-13.27zM169.13 69.88v2.16H152.8V36.77h16.04v2.08h-13.73v14.17h12.76v2.09h-12.76v14.77h14.02z"/>
    <path class="cls-1" d="M-188.82 127.39c-5.89 1-11.86 1.12-17.75 1.72-5.15.52-10.51 1.57-14.91 4.47a11.18 11.18 0 0 0-1.86 1.42 19.27 19.27 0 0 0-6 10.07c-.15.75-.3 1.49-.37 2.16a17.57 17.57 0 0 1-.3 2.09 9.09 9.09 0 0 1-4 4.4c.22-2.46.52-7.68-3.06-6.94a2.55 2.55 0 0 0-1.79 3.06 10.5 10.5 0 0 0 1.49 4.1 27.9 27.9 0 0 1-6-2.24 4.22 4.22 0 0 1-1.79-1.42l-1.57-2a29.55 29.55 0 0 0-10.74-8.13c-5.37-2.31-11.48-2.76-17.23-2.24-2.39.22-4.85.67-7.16 1.12-1.79.37-3.58.82-5.37 1-.45 0-.82.07-1.19.07s-.37.22-.22.37a38.56 38.56 0 0 0 13 10.74 35.22 35.22 0 0 0 16.78 3.51c2.76-.07 5.52-.37 8.2-.67 1.42-.15 2.83-.22 4.25-.3a4.91 4.91 0 0 1 2.83.89 12.45 12.45 0 0 1 4.18 5 29.24 29.24 0 0 1 2.68 7.53c1.49 6 1.19 12.38 1 18.49-.07 2.68-.22 5.37-.3 8a25 25 0 0 0 .3 5.29.27.27 0 0 1 .07.22.26.26 0 0 0 .3.22h2.68a.31.31 0 0 0 .3-.22 81 81 0 0 0 .37-14.09c-.3-6.12-.89-12.23-.22-18.35a45 45 0 0 1 1.79-8.8 22.75 22.75 0 0 1 3.06-6.71.65.65 0 0 1 .52-.37h1a21 21 0 0 0 2.16-.07 33.69 33.69 0 0 0 4-.45 37.44 37.44 0 0 0 7.53-2 47.92 47.92 0 0 0 21.18-16.63 32.2 32.2 0 0 0 2.54-4c.07-.16-.15-.31-.38-.31z" transform="translate(322.23 -127.39)"/>
</svg>
