<svg xmlns="http://www.w3.org/2000/svg" viewBox="0 0 39.65 27.67">
  <g>
    <g><circle cx="19.71" cy="3.53" r="3.03"/><line x1="23.21" y1="3.34" x2="35.25" y2="3.34"/><line x1="4.33" y1="3.34" x2="16.37" y2="3.34"/><line x1="19.71" y1="6.56" x2="19.71" y2="27.17"/><line x1="9.86" y1="27.07" x2="29.08" y2="27.07"/><path d="M2.82,15.19,7.1,4.1l4.27,11.09"/><path d="M28.19,15.19,32.46,4.1l4.27,11.09"/><path d="M7.1,21.7a6.6,6.6,0,0,0,6.6-6.6H.5A6.6,6.6,0,0,0,7.1,21.7Z"/><path d="M32.56,21.7a6.6,6.6,0,0,0,6.6-6.6H26A6.6,6.6,0,0,0,32.56,21.7Z"/></g>
  </g>
</svg>
