<svg xmlns="http://www.w3.org/2000/svg" viewBox="0 0 22.01 21.82">
  <g>
    <g><rect x="0.4" y="10.95" width="21.21" height="2.97" rx="0.51" ry="0.51"/><rect x="5.57" y="13.92" width="1.55" height="5.92" rx="0.27" ry="0.27"/><rect x="8.68" y="13.92" width="1.55" height="5.92" rx="0.27" ry="0.27"/><rect x="11.75" y="13.92" width="1.55" height="5.92" rx="0.27" ry="0.27"/><rect x="14.88" y="13.92" width="1.55" height="5.92" rx="0.27" ry="0.27"/><path d="M1.79,13.92v1.91l1.49,5c.08.26.32.55.58.55H18.15c.27,0,.51-.29.58-.55l1.49-5V13.92"/><polyline points="6.13 10.95 10.01 6.85 17.45 10.95"/><path d="M2.39,10.95a3.88,3.88,0,0,1,6.77-3.2"/><rect x="12.16" y="0.4" width="5.5" height="2" rx="0.39" ry="0.39"/><path d="M11.24,7.53A20,20,0,0,1,13.29,2.4"/><path d="M16.65,2.4a16,16,0,0,1,2.25,8.54"/></g>
  </g>
</svg>
