<svg xmlns="http://www.w3.org/2000/svg" viewBox="0 0 40.5 40.91">
  <g>
    <g><path d="M34.06,18.07H31V16.22H.5V24A15.09,15.09,0,0,0,7.68,36.83H23.84A15.22,15.22,0,0,0,29.78,30h4.27a5.94,5.94,0,0,0,0-11.89Zm-.87,9.77H30.52A14.94,14.94,0,0,0,31,24V20.19h2.17a3.82,3.82,0,0,1,0,7.65Z"/><rect x="1.03" y="38.56" width="28.8" height="1.85" rx="0.92" ry="0.92"/><path d="M12.13.5a5.5,5.5,0,0,1,3,5c0,3.7-2.38,2.91-2.38,5.81v2.91"/><path d="M15.43.5a5.5,5.5,0,0,1,3,5c0,3.7-2.38,2.91-2.38,5.81v2.91"/><path d="M18.73.5a5.5,5.5,0,0,1,3,5c0,3.7-2.38,2.91-2.38,5.81v2.91"/></g>
  </g>
</svg>
