<?xml version="1.0" encoding="utf-8"?>
<!-- Generator: Adobe Illustrator 19.2.1, SVG Export Plug-In . SVG Version: 6.00 Build 0)  -->
<svg version="1.1" id="Capa_1" xmlns="http://www.w3.org/2000/svg" xmlns:xlink="http://www.w3.org/1999/xlink" x="0px" y="0px"
	 viewBox="0 0 94 94" style="enable-background:new 0 0 94 94;" xml:space="preserve">
<g>
	<path d="M82,0H12C5.4,0,0,5.4,0,12v70c0,6.6,5.4,12,12,12h70c6.6,0,12-5.4,12-12V12C94,5.4,88.6,0,82,0z M74.9,52.9
		c2.6,2.5,5.3,4.9,7.6,7.6c1,1.2,2,2.5,2.7,3.9c1,2,0.1,4.2-1.7,4.4l-11.3,0c-2.9,0.2-5.2-0.9-7.2-2.9c-1.6-1.6-3-3.3-4.5-4.9
		c-0.6-0.7-1.3-1.3-2-1.8c-1.3-0.9-3-0.5-3.7,0.9c-0.9,1.6-1.1,3.4-1.2,5.3c-0.1,2.7-0.9,3.3-3.6,3.5c-5.7,0.3-11.1-0.6-16.1-3.5
		C29.4,62.8,26,59.3,23,55.2c-5.8-7.9-10.3-16.5-14.3-25.4c-0.9-2-0.2-3.1,2-3.1c3.7-0.1,7.4-0.1,11,0c1.6,0,2.6,1,3.1,2.5
		c1.6,4.5,3.8,8.8,6.7,12.7c1.1,1.4,2,3,3.5,4.1c1.1,0.7,2.4,0.3,2.9-0.9c0.4-0.9,0.6-1.9,0.6-2.9c0.3-3.4,0.3-6.8-0.2-10.2
		c-0.3-1.9-1.7-3.4-3.6-3.8c-1-0.2-0.9-0.6-0.4-1.2c0.9-1.1,1.8-1.7,3.5-1.7l12.7,0c2,0.4,2.5,1.3,2.7,3.3l0,14.1
		c0,0.8,0.4,3.1,1.8,3.6c1.1,0.4,1.9-0.5,2.5-1.2c3.6-3.8,6-8.5,8.2-13.2c0.5-1,0.8-2.1,1.2-3.1c0.5-1.4,1.4-2.1,2.9-2.1l12.2,0
		c0.4,0,0.7,0,1.1,0.1c2.1,0.4,2.6,1.2,2,3.3c-1,3.2-3,5.8-4.9,8.4c-2,2.8-4.2,5.6-6.3,8.4C72.4,49.4,72.6,50.7,74.9,52.9z"/>
</g>
</svg>
