<svg xmlns="http://www.w3.org/2000/svg" viewBox="0 0 17.37 24.67"><title>Ресурс 1</title><g id="Слой_2" data-name="Слой 2"><g id="Layer_1" data-name="Layer 1"><path d="M1.47,15.55,0,15.44l.26-2.17c1.52-.46,3.32.62,4.54-1.28H.39a15.07,15.07,0,0,1,.28-2c0-.17.51-.33.79-.33,1.81,0,3.63,0,5.44,0a3.71,3.71,0,0,0,3.3-2.95c.13-1.4-1-2.63-2.77-2.93a12.47,12.47,0,0,0-5.51.66l-.67.2c.12-1.28.21-2.47.37-3.66,0-.18.34-.43.56-.46C5.23,0,8.29-.34,11.35.63a5.53,5.53,0,0,1,3.42,8.2,6.3,6.3,0,0,0-.27.81h2.88a12.62,12.62,0,0,1-.19,1.89c0,.19-.47.4-.73.41-1.32,0-2.64,0-4,0-.78,0-1.23.42-1.75,1.15H17a17.78,17.78,0,0,1-.21,2c0,.16-.45.33-.69.33-2.47,0-4.94,0-7.42,0-1.12,0-1.79.58-2.24,1.89A2.37,2.37,0,0,0,7.15,20a5.26,5.26,0,0,0,4.33.79c1.52-.25,3-.78,4.5-1.19l.54-.12c-.1,1.27-.17,2.47-.33,3.65a1,1,0,0,1-.64.67c-3.12.67-6.26,1.25-9.44.41S.5,21.27.94,17.32A10.7,10.7,0,0,1,1.47,15.55Z"/></g></g></svg>