<svg id="Layer_1" data-name="Layer 1" xmlns="http://www.w3.org/2000/svg" viewBox="0 0 169.13 72.04"><defs><style>.cls-1,.cls-2{fill:#fff;}.cls-1{fill-rule:evenodd;}</style></defs><title>logo</title><path class="cls-1" d="M-298.22,164.16v35.2h-2.31V176.61c0-2.68.07-5.15,0.22-7.53h-0.15c-0.75,1.94-1.72,4.47-2.76,6.86L-309,190.63h-2.31l-5.89-14.69c-1-2.39-2-4.92-2.76-6.86h-0.07c0.07,2.39.15,4.85,0.15,7.53v22.75h-2.31v-35.2h2.46l7.16,17.3c0.75,1.86,1.72,4.62,2.31,6.34h0.15c0.6-1.72,1.57-4.47,2.39-6.34l7.16-17.3h2.39Z" transform="translate(322.23 -127.39)"/><path class="cls-1" d="M-276.29,190.41h-11.78l-2.31,9h-2.46l9.32-35.27h2.61l9.32,35.27h-2.46Zm0,0h0Zm-0.6-2.16h0l-3.65-14.47c-0.6-2.39-1.27-5.07-1.64-6.71h-0.07c-0.37,1.64-1,4.33-1.57,6.71l-3.73,14.47h10.66Z" transform="translate(322.23 -127.39)"/><polygon class="cls-1" points="70.17 72.04 62.79 55.93 55.41 72.04 52.95 72.04 61.45 53.69 53.32 36.77 55.86 36.77 62.79 51.53 69.73 36.77 72.19 36.77 64.13 53.69 72.71 72.04 70.17 72.04"/><polygon class="cls-1" points="118.35 69.88 118.35 72.04 103.06 72.04 103.06 36.77 105.3 36.77 105.3 69.88 118.35 69.88"/><rect class="cls-2" x="123.34" y="36.77" width="2.31" height="35.27"/><polygon class="cls-1" points="134.61 38.85 134.61 53.54 146.99 53.54 146.99 55.71 134.61 55.71 134.61 72.04 132.37 72.04 132.37 36.77 147.88 36.77 147.88 38.85 134.61 38.85"/><polygon class="cls-1" points="169.13 69.88 169.13 72.04 152.8 72.04 152.8 36.77 168.84 36.77 168.84 38.85 155.11 38.85 155.11 53.02 167.87 53.02 167.87 55.11 155.11 55.11 155.11 69.88 169.13 69.88"/><path class="cls-1" d="M-188.82,127.39c-5.89,1-11.86,1.12-17.75,1.72-5.15.52-10.51,1.57-14.91,4.47a11.18,11.18,0,0,0-1.86,1.42,19.27,19.27,0,0,0-6,10.07c-0.15.75-.3,1.49-0.37,2.16a17.57,17.57,0,0,1-.3,2.09,9.09,9.09,0,0,1-4,4.4c0.22-2.46.52-7.68-3.06-6.94a2.55,2.55,0,0,0-1.79,3.06,10.5,10.5,0,0,0,1.49,4.1,27.9,27.9,0,0,1-6-2.24,4.22,4.22,0,0,1-1.79-1.42l-1.57-2a29.55,29.55,0,0,0-10.74-8.13c-5.37-2.31-11.48-2.76-17.23-2.24-2.39.22-4.85,0.67-7.16,1.12-1.79.37-3.58,0.82-5.37,1-0.45,0-.82.07-1.19,0.07s-0.37.22-.22,0.37a38.56,38.56,0,0,0,13,10.74,35.22,35.22,0,0,0,16.78,3.51c2.76-.07,5.52-0.37,8.2-0.67,1.42-.15,2.83-0.22,4.25-0.3a4.91,4.91,0,0,1,2.83.89,12.45,12.45,0,0,1,4.18,5,29.24,29.24,0,0,1,2.68,7.53c1.49,6,1.19,12.38,1,18.49-0.07,2.68-.22,5.37-0.3,8a25,25,0,0,0,.3,5.29,0.27,0.27,0,0,1,.07.22,0.26,0.26,0,0,0,.3.22h2.68a0.31,0.31,0,0,0,.3-0.22,81,81,0,0,0,.37-14.09c-0.3-6.12-.89-12.23-0.22-18.35a45,45,0,0,1,1.79-8.8,22.75,22.75,0,0,1,3.06-6.71,0.65,0.65,0,0,1,.52-0.37h1a21,21,0,0,0,2.16-.07,33.69,33.69,0,0,0,4-.45,37.44,37.44,0,0,0,7.53-2,47.92,47.92,0,0,0,21.18-16.63,32.2,32.2,0,0,0,2.54-4C-188.37,127.54-188.59,127.39-188.82,127.39Z" transform="translate(322.23 -127.39)"/></svg>